<svg xmlns="http://www.w3.org/2000/svg" xmlns:xlink="http://www.w3.org/1999/xlink" width="45" zoomAndPan="magnify" viewBox="0 0 33.75 33.749998" height="45" preserveAspectRatio="xMidYMid meet" version="1.0"><defs><clipPath id="0d6a14b501"><path d="M 3 6.660156 L 30.902344 6.660156 L 30.902344 18 L 3 18 Z M 3 6.660156 " clip-rule="nonzero"/></clipPath><clipPath id="445334e2f5"><path d="M 2.613281 10 L 30.902344 10 L 30.902344 26.761719 L 2.613281 26.761719 Z M 2.613281 10 " clip-rule="nonzero"/></clipPath></defs><g clip-path="url(#0d6a14b501)"><path fill="#1a1a1a" d="M 14.894531 17.082031 C 15.160156 17.285156 15.453125 17.441406 15.769531 17.546875 C 16.085938 17.65625 16.410156 17.707031 16.742188 17.707031 C 17.078125 17.707031 17.402344 17.65625 17.71875 17.546875 C 18.035156 17.441406 18.324219 17.285156 18.589844 17.082031 L 30.316406 7.945312 C 30.035156 7.542969 29.675781 7.226562 29.238281 7 C 28.800781 6.773438 28.335938 6.660156 27.847656 6.660156 L 5.644531 6.660156 C 5.121094 6.660156 4.632812 6.789062 4.179688 7.042969 C 3.722656 7.296875 3.355469 7.648438 3.082031 8.09375 Z M 14.894531 17.082031 " fill-opacity="1" fill-rule="nonzero"/></g><g clip-path="url(#445334e2f5)"><path fill="#1a1a1a" d="M 19.828125 18.679688 C 19.386719 19.019531 18.902344 19.277344 18.375 19.457031 C 17.847656 19.636719 17.304688 19.726562 16.75 19.726562 C 16.191406 19.726562 15.652344 19.636719 15.125 19.457031 C 14.597656 19.277344 14.113281 19.019531 13.671875 18.679688 L 2.617188 10.273438 L 2.617188 23.8125 C 2.617188 24.214844 2.695312 24.601562 2.847656 24.972656 C 3 25.34375 3.21875 25.671875 3.503906 25.953125 C 3.789062 26.238281 4.117188 26.457031 4.488281 26.609375 C 4.855469 26.765625 5.242188 26.839844 5.644531 26.839844 L 27.847656 26.839844 C 28.246094 26.839844 28.632812 26.765625 29.003906 26.609375 C 29.375 26.457031 29.703125 26.238281 29.988281 25.953125 C 30.269531 25.671875 30.488281 25.34375 30.644531 24.972656 C 30.796875 24.601562 30.875 24.214844 30.875 23.8125 L 30.875 10.074219 Z M 19.828125 18.679688 " fill-opacity="1" fill-rule="nonzero"/></g></svg>