<svg xmlns="http://www.w3.org/2000/svg" xmlns:xlink="http://www.w3.org/1999/xlink" width="45" zoomAndPan="magnify" viewBox="0 0 33.75 33.749998" height="45" preserveAspectRatio="xMidYMid meet" version="1.0"><defs><clipPath id="b1ded7ed78"><path d="M 2.828125 2.828125 L 30.375 2.828125 L 30.375 30.375 L 2.828125 30.375 Z M 2.828125 2.828125 " clip-rule="nonzero"/></clipPath></defs><g clip-path="url(#b1ded7ed78)"><path fill="#1a1a1a" d="M 27.167969 2.882812 L 6.320312 2.882812 C 4.402344 2.882812 2.828125 4.457031 2.828125 6.363281 L 2.828125 27.113281 C 2.828125 29.023438 4.402344 30.613281 6.320312 30.613281 L 16.691406 30.613281 L 16.691406 21.042969 L 13.269531 21.042969 L 13.269531 16.800781 L 16.691406 16.800781 L 16.691406 13.28125 C 16.691406 10.414062 19.078125 8.15625 21.957031 8.15625 L 25.5 8.15625 L 25.5 12.453125 L 23.691406 12.453125 C 22.734375 12.453125 21.96875 12.324219 21.96875 13.28125 L 21.96875 16.800781 L 26.296875 16.800781 L 24.5625 21.042969 L 21.96875 21.042969 L 21.96875 30.613281 L 27.167969 30.613281 C 29.082031 30.613281 30.664062 29.023438 30.664062 27.113281 L 30.664062 6.363281 C 30.664062 4.457031 29.082031 2.882812 27.167969 2.882812 Z M 27.167969 2.882812 " fill-opacity="1" fill-rule="nonzero"/></g></svg>