<svg xmlns="http://www.w3.org/2000/svg" xmlns:xlink="http://www.w3.org/1999/xlink" width="45" zoomAndPan="magnify" viewBox="0 0 33.75 33.749998" height="45" preserveAspectRatio="xMidYMid meet" version="1.0"><defs><clipPath id="25a9c4e21b"><path d="M 3.351562 3.351562 L 30.152344 3.351562 L 30.152344 30.152344 L 3.351562 30.152344 Z M 3.351562 3.351562 " clip-rule="nonzero"/></clipPath></defs><g clip-path="url(#25a9c4e21b)"><path fill="#1a1a1a" d="M 27.382812 9.003906 C 27.382812 9.433594 27.03125 9.785156 26.601562 9.785156 L 24.667969 9.785156 C 24.234375 9.785156 23.886719 9.433594 23.886719 9.003906 L 23.886719 7.070312 C 23.886719 6.636719 24.234375 6.285156 24.667969 6.285156 L 26.601562 6.285156 C 27.03125 6.285156 27.382812 6.636719 27.382812 7.070312 Z M 24.03125 3.351562 L 10.609375 3.351562 L 10.609375 10.832031 L 9.738281 10.832031 L 9.738281 3.351562 L 9.46875 3.351562 C 9.199219 3.351562 8.933594 3.367188 8.671875 3.402344 L 8.671875 10.832031 L 7.800781 10.832031 L 7.800781 3.578125 C 7.429688 3.683594 7.074219 3.824219 6.734375 3.996094 L 6.734375 10.832031 L 5.863281 10.832031 L 5.863281 4.523438 C 4.339844 5.636719 3.351562 7.4375 3.351562 9.46875 L 3.351562 12.820312 L 12.328125 12.820312 C 13.410156 11.601562 14.992188 10.832031 16.75 10.832031 C 18.511719 10.832031 20.089844 11.601562 21.175781 12.820312 L 30.152344 12.820312 L 30.152344 13.691406 L 21.816406 13.691406 C 22.355469 14.582031 22.667969 15.628906 22.667969 16.75 C 22.667969 20.019531 20.019531 22.667969 16.75 22.667969 C 13.484375 22.667969 10.832031 20.019531 10.832031 16.75 C 10.832031 15.628906 11.144531 14.582031 11.6875 13.691406 L 3.351562 13.691406 L 3.351562 24.03125 C 3.351562 27.410156 6.089844 30.152344 9.46875 30.152344 L 24.03125 30.152344 C 27.410156 30.152344 30.152344 27.410156 30.152344 24.03125 L 30.152344 9.46875 C 30.152344 6.089844 27.410156 3.351562 24.03125 3.351562 " fill-opacity="1" fill-rule="nonzero"/></g><path fill="#1a1a1a" d="M 16.75 19.625 C 15.164062 19.625 13.875 18.335938 13.875 16.75 C 13.875 15.164062 15.164062 13.875 16.75 13.875 C 18.335938 13.875 19.625 15.164062 19.625 16.75 C 19.625 18.335938 18.335938 19.625 16.75 19.625 Z M 16.75 12.519531 C 14.417969 12.519531 12.519531 14.417969 12.519531 16.75 C 12.519531 19.085938 14.417969 20.984375 16.75 20.984375 C 19.085938 20.984375 20.984375 19.085938 20.984375 16.75 C 20.984375 14.417969 19.085938 12.519531 16.75 12.519531 " fill-opacity="1" fill-rule="nonzero"/></svg>