<svg xmlns="http://www.w3.org/2000/svg" xmlns:xlink="http://www.w3.org/1999/xlink" width="45" zoomAndPan="magnify" viewBox="0 0 33.75 33.749998" height="45" preserveAspectRatio="xMidYMid meet" version="1.0"><defs><clipPath id="3fe9568006"><path d="M 3.351562 3.351562 L 30.152344 3.351562 L 30.152344 30.152344 L 3.351562 30.152344 Z M 3.351562 3.351562 " clip-rule="nonzero"/></clipPath></defs><g clip-path="url(#3fe9568006)"><path fill="#1a1a1a" d="M 29.921875 23.101562 C 30.121094 23.625 30.234375 24.191406 30.25 24.78125 C 30.257812 24.835938 30.257812 24.894531 30.257812 24.949219 C 30.257812 27.878906 27.878906 30.257812 24.949219 30.257812 C 13.019531 30.257812 3.351562 20.585938 3.351562 8.65625 C 3.351562 5.726562 5.726562 3.351562 8.65625 3.351562 C 8.714844 3.351562 8.769531 3.351562 8.824219 3.355469 C 9.414062 3.371094 9.980469 3.488281 10.507812 3.683594 L 12.5 12.304688 C 12.5 12.308594 12.496094 12.3125 12.492188 12.316406 L 8.839844 13.957031 L 8.828125 13.960938 C 10.503906 19.066406 14.542969 23.101562 19.644531 24.777344 L 19.648438 24.765625 L 21.292969 21.113281 L 29.921875 23.101562 " fill-opacity="1" fill-rule="nonzero"/></g></svg>