<svg xmlns="http://www.w3.org/2000/svg" xmlns:xlink="http://www.w3.org/1999/xlink" width="45" zoomAndPan="magnify" viewBox="0 0 33.75 33.749998" height="45" preserveAspectRatio="xMidYMid meet" version="1.0"><defs><clipPath id="1cddc9e11c"><path d="M 6.707031 2.273438 L 26.808594 2.273438 L 26.808594 31.308594 L 6.707031 31.308594 Z M 6.707031 2.273438 " clip-rule="nonzero"/></clipPath></defs><g clip-path="url(#1cddc9e11c)"><path fill="#1a1a1a" d="M 16.746094 2.269531 C 11.203125 2.269531 6.710938 6.761719 6.710938 12.304688 C 6.710938 13.226562 6.835938 14.121094 7.070312 14.96875 C 7.273438 15.707031 7.554688 16.410156 7.914062 17.070312 C 8 17.230469 8.089844 17.386719 8.183594 17.542969 L 15.75 30.648438 C 15.765625 30.675781 15.78125 30.707031 15.796875 30.734375 C 16.007812 31.035156 16.351562 31.230469 16.746094 31.230469 C 17.140625 31.230469 17.488281 31.03125 17.695312 30.730469 L 17.726562 30.675781 L 25.308594 17.542969 L 25.582031 17.070312 C 25.9375 16.410156 26.21875 15.707031 26.421875 14.96875 C 26.65625 14.121094 26.78125 13.226562 26.78125 12.304688 C 26.78125 6.761719 22.289062 2.269531 16.746094 2.269531 Z M 16.746094 16.511719 C 14.421875 16.511719 12.539062 14.628906 12.539062 12.304688 C 12.539062 9.980469 14.421875 8.097656 16.746094 8.097656 C 19.070312 8.097656 20.953125 9.980469 20.953125 12.304688 C 20.953125 14.628906 19.070312 16.511719 16.746094 16.511719 Z M 16.746094 16.511719 " fill-opacity="1" fill-rule="nonzero"/></g></svg>